<svg width="0" height="0" class="hidden">
  <symbol xmlns="http://www.w3.org/2000/svg" viewBox="0 0 30 30" id="arrow-type-1">
    <path fill-rule="evenodd" clip-rule="evenodd" d="M24.4571 14.2929C24.8476 14.6834 24.8476 15.3166 24.4571 15.7071L16.9571 23.2071C16.5666 23.5976 15.9334 23.5976 15.5429 23.2071C15.1524 22.8166 15.1524 22.1834 15.5429 21.7929L21.3358 16H6.25C5.69772 16 5.25 15.5523 5.25 15C5.25 14.4477 5.69772 14 6.25 14H21.3358L15.5429 8.20711C15.1524 7.81658 15.1524 7.18342 15.5429 6.79289C15.9334 6.40237 16.5666 6.40237 16.9571 6.79289L24.4571 14.2929Z"></path>
  </symbol>
  <symbol xmlns="http://www.w3.org/2000/svg" viewBox="0 0 16 16" id="arrow-type-2">
    <path fill-rule="evenodd" clip-rule="evenodd" d="M11.662 4.00413C12.2122 4.05226 12.6192 4.5373 12.571 5.08748L12.078 10.7228C12.0299 11.273 11.5448 11.68 10.9947 11.6318C10.4445 11.5837 10.0375 11.0987 10.0856 10.5485L10.3682 7.31819L5.06789 11.7657C4.64481 12.1207 4.01406 12.0655 3.65905 11.6425C3.30405 11.2194 3.35924 10.5886 3.78231 10.2336L9.08266 5.7861L5.85236 5.50349C5.30218 5.45536 4.89519 4.97032 4.94332 4.42014C4.99146 3.86996 5.47649 3.46297 6.02667 3.5111L11.662 4.00413Z"></path>
  </symbol>
</svg>